PathFileType	4	(X/Y/Z)	Patient4_TMGait_0pt4_03_right_16.trc.trc
DataRate	CameraRate	NumFrames	NumMarkers	Units	OrigDataRate	OrigDataStartFrame	OrigNumFrames
72.916666666667	72.916666666667	4	33	mm	72.916666666667	89	       141
Frame#	Time	Sacral			L.Shoulder			Chest			R.Shoulder			Neck			R.ASIS			L.ASIS			R.Thigh.Superior			R.Thigh.Lateral			R.Thigh.Inferior			R.Patella			L.Thigh.Superior			L.Thigh.Lateral			L.Thigh.Inferior			L.Patella			L.Shank.Superior			L.Shank.Lateral			L.Shank.Inferior			R.Shank.Superior			R.Shank.Lateral			R.Shank.Inferior			R.Heel			R.Midfoot.Superior			R.Midfoot.Lateral			R.Toe			L.Heel			L.Midfoot.Lateral			L.Midfoot.Superior			L.Toe			L.Elbow			L.Wrist			R.Elbow			R.Wrist			
		X1	Y1	Z1	X2	Y2	Z2	X3	Y3	Z3	X4	Y4	Z4	X5	Y5	Z5	X6	Y6	Z6	X7	Y7	Z7	X8	Y8	Z8	X9	Y9	Z9	X10	Y10	Z10	X11	Y11	Z11	X12	Y12	Z12	X13	Y13	Z13	X14	Y14	Z14	X15	Y15	Z15	X16	Y16	Z16	X17	Y17	Z17	X18	Y18	Z18	X19	Y19	Z19	X20	Y20	Z20	X21	Y21	Z21	X22	Y22	Z22	X23	Y23	Z23	X24	Y24	Z24	X25	Y25	Z25	X26	Y26	Z26	X27	Y27	Z27	X28	Y28	Z28	X29	Y29	Z29	X30	Y30	Z30	X31	Y31	Z31	X32	Y32	Z32	X33	Y33	Z33	

89	21.316857142857	856.814162908896	1011.114847979343	469.899868814412	1028.065501273685	1427.700010100326	261.238131697623	1145.133830593087	1362.947722331960	413.816547745750	1081.071922674467	1442.712863093243	593.050924267165	1025.226510372355	1495.059386017888	416.504866538585	1089.036575489929	941.748403794443	573.170046152555	1062.188861360065	958.925044102297	301.257051755295	1109.199647701730	732.497285497198	555.344926983808	1020.988183650850	630.545177163823	624.726753367111	1094.077150815213	566.249162578016	550.073974537507	1082.285819817957	464.132281656083	570.832527097473	1126.119428846130	760.353455573963	330.008133679057	1049.145913817655	637.334187630287	268.402619812935	1144.376348204579	568.010064475227	326.573072839262	1151.461479778373	497.538795855898	333.199127563578	1127.133610728220	424.170111176668	324.194199226771	1041.126763228690	307.325733822251	273.134722581228	1099.480612518897	195.915670541253	338.167405901351	1014.147928461788	393.625038522253	577.701628719607	901.522043577874	335.657547421306	638.639599350912	902.766913861850	226.251591158327	585.880003765711	714.445439669708	120.399843571251	556.581463714849	889.634416184970	108.985649955850	600.521074585737	785.388490047008	79.646259493342	631.292406127258	981.041490310279	35.061407843848	629.101548081632	979.481217671644	38.677889121938	380.714458029410	1050.368050167591	35.564826829441	297.472877767124	1133.939883573244	97.155127472290	322.479050706848	1261.609993315639	46.508866685583	288.691437976098	962.880663997705	1079.962799466739	149.830443197491	1060.531526073241	837.142675313046	115.861050987345	1109.552587510280	1097.310664347454	722.000901040268	1257.353765369136	882.625031168792	704.970383206055	
90	21.330571428571	856.637630439468	1011.033414029222	465.900852893256	1029.908093425298	1427.915847926143	257.788472436789	1145.678771216152	1363.120895253335	411.330721504782	1080.146833044003	1442.822957063288	590.069580597537	1025.718574541049	1495.187962483220	413.154521067994	1088.509424099814	942.166711956088	570.398100072914	1063.062217444581	959.105208079062	298.331589149633	1114.273688546394	734.501556799475	553.098932255594	1029.184260506158	630.764105011241	623.119942909106	1104.653704771814	567.665203680196	549.098766203736	1094.102689171433	464.086703947626	570.954901413373	1125.711511896329	759.477791632301	326.742100624105	1047.747263929674	637.100184606873	265.717277467151	1142.207494649430	567.212880590996	324.248136057911	1148.776855262888	496.800081339695	331.104519011828	1124.103753652450	423.428905812382	322.456709186696	1037.640435864609	306.843063246870	271.739014034589	1095.016449332898	195.439648586414	337.464943845458	1023.845682213455	394.391639910699	577.498911482748	909.082633543655	340.443622003846	638.215073102340	907.127413451862	230.799869110311	586.318435787023	715.580991034267	133.225013836960	556.975402140754	889.712403118331	112.316260496063	601.020124703228	784.084038400691	88.494786889180	631.569746953603	976.125766283858	34.222725243665	629.200972260150	974.003957629236	38.692862919389	380.595580169552	1044.875947856102	35.479870131524	297.329302545994	1128.574213297182	96.939228621358	322.349565575537	1256.251608742380	45.915086550404	288.613443681788	966.467453753008	1080.402967130730	144.572415440476	1068.880600492637	839.338585192081	111.540724760505	1101.553574731729	1097.449498444922	720.304354549548	1240.108842593982	875.962217434464	710.430893548418	
91	21.344285714286	856.304023996571	1010.820253527836	462.049134167789	1031.782914441728	1427.978079031010	254.491217211764	1146.150673221548	1363.120521179618	409.060497634371	1079.083442808449	1442.822972127980	587.246957049631	1026.230456828618	1495.199898359458	409.923992614515	1087.817361156151	942.506136144943	567.802083021877	1063.751882540026	959.212143645722	295.574617609491	1119.474465475354	736.809873172003	550.912720657807	1037.727732607252	631.233779300611	621.601655405177	1115.542628051931	569.503105020705	548.151606647298	1106.374593220616	464.563501946883	570.915306847976	1125.209056915106	758.654990554232	323.701953339680	1046.398071577794	636.868040734101	263.141699223303	1140.110785613134	566.453370166633	322.035812201912	1146.175263934833	496.059429449197	329.083509748171	1121.139172159395	422.679703303007	320.780807301551	1034.190846473886	306.382152370477	270.374375114065	1090.586925914130	194.973785378831	336.774902715087	1034.150694034909	395.533143029825	577.164903831689	917.471687566093	345.594822808249	637.784469416115	912.222453234745	235.880067149809	586.671000674178	717.816358363511	147.006746635749	557.337903558751	890.424125942255	116.337364565752	601.409281184782	783.611748870598	98.319855658144	631.819690798239	971.533904660523	33.323722320557	629.300862019910	968.535614565590	38.721742172166	380.459046449915	1039.396100025428	35.411294303467	297.175129640226	1123.218073204648	96.740035931455	322.207512322063	1250.901954403861	45.343187078291	288.528913556122	970.351062244128	1080.747603429802	139.264389683479	1077.460726461647	841.502883355536	107.382998276986	1093.002778399619	1097.651149641310	718.848743166968	1222.397026133482	870.299002059916	715.770557354260	
92	21.358000000000	855.824089551448	1010.504646677040	458.371915485923	1033.641133625149	1427.906403582338	251.370364600142	1146.522271037525	1362.987978169892	407.017747988250	1077.865806516479	1442.751044375412	584.598701858363	1026.748576983324	1495.121675321139	406.835793583089	1086.982795200843	942.799585316369	565.396661556223	1064.256531400863	959.252315077945	293.023138108134	1124.658960587035	739.434603343772	548.754494289285	1046.432263503720	632.022031654085	620.133637851252	1126.480250488356	571.812510953941	547.150399542112	1118.859502092138	465.618192049022	570.630295619302	1124.637033930809	757.890398984503	320.882639867334	1045.081872152972	636.626431668357	260.730016927824	1138.105048438359	565.724398700589	319.944308047412	1143.689391025788	495.319309491153	327.175586755265	1118.263735394057	421.926166861432	319.208836588757	1030.790979466847	305.958696821697	269.081407010006	1086.192791395226	194.520824259376	336.124195004633	1044.849678511244	397.092416898292	576.655407617070	926.508169309569	351.052759011255	637.308479397325	917.964245330480	241.419496688623	586.896179512646	721.142233115144	161.393932881268	557.655125166541	891.812251055402	121.000301592395	601.651885437856	784.055277213789	108.875610299557	632.017108808363	967.452562518208	32.461268386077	629.357359893965	963.077208720832	38.763346635766	380.311187068905	1033.928463707311	35.362102200847	297.016495020793	1117.868788515489	96.562876334062	322.058675369591	1245.556403594942	44.809538652246	288.435264329056	974.545939420609	1081.005579980618	133.951856601070	1086.252894893719	843.633582684348	103.440299594136	1083.970342440488	1097.961671084441	717.615476631303	1204.376423155358	865.607131956231	720.882554886854	
